<svg  class="Group_170" xmlns="http://www.w3.org/2000/svg" width="479.77" height="134.253" viewBox="0 0 479.77 134.253">
  <g  id="Group_171" data-name="Group 171" transform="translate(-822 -709.926)">
    <path  id="Open_Source_Data_Collection" data-name="Open Source Data Collection" d="M12.63.24c6.39,0,11.13-4.56,11.13-10.74S19.02-21.24,12.63-21.24c-6.45,0-11.19,4.59-11.19,10.74S6.18.24,12.63.24Zm0-2.67A7.9,7.9,0,0,1,4.44-10.5a7.9,7.9,0,0,1,8.19-8.07,7.884,7.884,0,0,1,8.13,8.07A7.884,7.884,0,0,1,12.63-2.43ZM36.36-16.05a6.772,6.772,0,0,0-5.67,2.67V-15.9H27.93V5.82h2.88V-2.4A6.79,6.79,0,0,0,36.36.18,7.725,7.725,0,0,0,44.4-7.95,7.717,7.717,0,0,0,36.36-16.05ZM36.12-2.34a5.258,5.258,0,0,1-5.34-5.61,5.25,5.25,0,0,1,5.34-5.58,5.256,5.256,0,0,1,5.37,5.58A5.265,5.265,0,0,1,36.12-2.34ZM62.76-7.86c0-4.89-3.27-8.19-7.86-8.19a7.787,7.787,0,0,0-7.98,8.1c0,4.74,3.42,8.13,8.55,8.13A7.981,7.981,0,0,0,61.74-2.4L60.15-4.26a5.937,5.937,0,0,1-4.59,1.92c-3.15,0-5.4-1.86-5.76-4.65H62.7C62.73-7.26,62.76-7.62,62.76-7.86ZM54.9-13.62A4.958,4.958,0,0,1,60-9.06H49.8A4.956,4.956,0,0,1,54.9-13.62Zm20.34-2.43a6.816,6.816,0,0,0-5.73,2.55v-2.4H66.75V0h2.88V-8.19c0-3.45,1.98-5.28,5.04-5.28,2.73,0,4.29,1.53,4.29,4.65V0h2.88V-9.15C81.84-13.83,79.11-16.05,75.24-16.05ZM101.79.24c5.55,0,8.13-2.76,8.13-5.97,0-7.71-12.72-4.5-12.72-9.63,0-1.83,1.53-3.33,5.1-3.33a10.845,10.845,0,0,1,5.76,1.71l.99-2.4a12.355,12.355,0,0,0-6.75-1.86c-5.52,0-8.04,2.76-8.04,6,0,7.8,12.72,4.56,12.72,9.69,0,1.83-1.56,3.24-5.19,3.24a10.808,10.808,0,0,1-6.93-2.43L93.75-2.4C95.43-.84,98.58.24,101.79.24Zm18.9-.06a7.911,7.911,0,0,0,8.25-8.13,7.887,7.887,0,0,0-8.25-8.1,7.912,7.912,0,0,0-8.28,8.1A7.936,7.936,0,0,0,120.69.18Zm0-2.52a5.265,5.265,0,0,1-5.37-5.61,5.24,5.24,0,0,1,5.37-5.58,5.217,5.217,0,0,1,5.34,5.58A5.242,5.242,0,0,1,120.69-2.34ZM144.87-15.9v8.22c0,3.42-1.92,5.28-4.92,5.28-2.73,0-4.29-1.56-4.29-4.68V-15.9h-2.88v9.15c0,4.68,2.73,6.93,6.84,6.93a6.469,6.469,0,0,0,5.4-2.58V0h2.73V-15.9ZM156-13.23V-15.9h-2.76V0h2.88V-7.92c0-3.48,1.92-5.37,5.01-5.37a5.085,5.085,0,0,1,.66.03v-2.79C159-16.05,157.02-15.09,156-13.23ZM172.11.18a7.114,7.114,0,0,0,6.48-3.42L176.4-4.62a4.957,4.957,0,0,1-4.32,2.28,5.269,5.269,0,0,1-5.46-5.61,5.277,5.277,0,0,1,5.46-5.58,4.957,4.957,0,0,1,4.32,2.28l2.19-1.41a7.091,7.091,0,0,0-6.48-3.39c-4.89,0-8.4,3.36-8.4,8.1S167.22.18,172.11.18Zm24.33-8.04c0-4.89-3.27-8.19-7.86-8.19a7.787,7.787,0,0,0-7.98,8.1c0,4.74,3.42,8.13,8.55,8.13a7.981,7.981,0,0,0,6.27-2.58l-1.59-1.86a5.937,5.937,0,0,1-4.59,1.92c-3.15,0-5.4-1.86-5.76-4.65h12.9C196.41-7.26,196.44-7.62,196.44-7.86Zm-7.86-5.76a4.958,4.958,0,0,1,5.1,4.56h-10.2A4.956,4.956,0,0,1,188.58-13.62ZM208.92,0h8.85c6.75,0,11.34-4.26,11.34-10.5S224.52-21,217.77-21h-8.85Zm3-2.61V-18.39h5.67c5.19,0,8.52,3.18,8.52,7.89s-3.33,7.89-8.52,7.89Zm27.15-13.44a10.589,10.589,0,0,0-6.57,2.04l1.2,2.16a8.041,8.041,0,0,1,5.04-1.71c2.85,0,4.26,1.41,4.26,3.84v.57h-4.56c-4.74,0-6.39,2.1-6.39,4.65,0,2.76,2.28,4.68,5.88,4.68,2.49,0,4.26-.84,5.22-2.28V0h2.73V-9.6C245.88-13.95,243.42-16.05,239.07-16.05Zm-.66,14.01c-2.19,0-3.51-.99-3.51-2.58,0-1.35.81-2.46,3.66-2.46H243v2.22A4.611,4.611,0,0,1,238.41-2.04ZM259.26-3a3.627,3.627,0,0,1-2.25.75,2.343,2.343,0,0,1-2.49-2.67v-8.61h4.56V-15.9h-4.56v-3.48h-2.88v3.48h-2.7v2.37h2.7V-4.8c0,3.21,1.83,4.98,5.04,4.98a5.433,5.433,0,0,0,3.48-1.11Zm10.17-13.05a10.589,10.589,0,0,0-6.57,2.04l1.2,2.16a8.041,8.041,0,0,1,5.04-1.71c2.85,0,4.26,1.41,4.26,3.84v.57H268.8c-4.74,0-6.39,2.1-6.39,4.65,0,2.76,2.28,4.68,5.88,4.68,2.49,0,4.26-.84,5.22-2.28V0h2.73V-9.6C276.24-13.95,273.78-16.05,269.43-16.05Zm-.66,14.01c-2.19,0-3.51-.99-3.51-2.58,0-1.35.81-2.46,3.66-2.46h4.44v2.22A4.611,4.611,0,0,1,268.77-2.04ZM299.46.24a10.42,10.42,0,0,0,8.01-3.3l-1.95-1.89a7.809,7.809,0,0,1-5.91,2.52,7.932,7.932,0,0,1-8.25-8.07,7.932,7.932,0,0,1,8.25-8.07,7.781,7.781,0,0,1,5.91,2.49l1.95-1.89a10.377,10.377,0,0,0-7.98-3.27c-6.39,0-11.13,4.53-11.13,10.74S293.1.24,299.46.24ZM317.49.18a7.911,7.911,0,0,0,8.25-8.13,7.887,7.887,0,0,0-8.25-8.1,7.912,7.912,0,0,0-8.28,8.1A7.936,7.936,0,0,0,317.49.18Zm0-2.52a5.265,5.265,0,0,1-5.37-5.61,5.24,5.24,0,0,1,5.37-5.58,5.217,5.217,0,0,1,5.34,5.58A5.242,5.242,0,0,1,317.49-2.34ZM329.73,0h2.88V-22.26h-2.88Zm8.37,0h2.88V-22.26H338.1Zm22.74-7.86c0-4.89-3.27-8.19-7.86-8.19A7.787,7.787,0,0,0,345-7.95c0,4.74,3.42,8.13,8.55,8.13a7.981,7.981,0,0,0,6.27-2.58l-1.59-1.86a5.937,5.937,0,0,1-4.59,1.92c-3.15,0-5.4-1.86-5.76-4.65h12.9C360.81-7.26,360.84-7.62,360.84-7.86Zm-7.86-5.76a4.958,4.958,0,0,1,5.1,4.56h-10.2A4.956,4.956,0,0,1,352.98-13.62ZM371.76.18a7.114,7.114,0,0,0,6.48-3.42l-2.19-1.38a4.957,4.957,0,0,1-4.32,2.28,5.269,5.269,0,0,1-5.46-5.61,5.277,5.277,0,0,1,5.46-5.58,4.957,4.957,0,0,1,4.32,2.28l2.19-1.41a7.091,7.091,0,0,0-6.48-3.39c-4.89,0-8.4,3.36-8.4,8.1S366.87.18,371.76.18ZM390.21-3a3.627,3.627,0,0,1-2.25.75,2.343,2.343,0,0,1-2.49-2.67v-8.61h4.56V-15.9h-4.56v-3.48h-2.88v3.48h-2.7v2.37h2.7V-4.8c0,3.21,1.83,4.98,5.04,4.98a5.433,5.433,0,0,0,3.48-1.11Zm5.82-15.96a1.885,1.885,0,0,0,1.95-1.92,1.866,1.866,0,0,0-1.95-1.83,1.9,1.9,0,0,0-1.95,1.89A1.872,1.872,0,0,0,396.03-18.96ZM394.59,0h2.88V-15.9h-2.88Zm15.18.18a7.911,7.911,0,0,0,8.25-8.13,7.887,7.887,0,0,0-8.25-8.1,7.912,7.912,0,0,0-8.28,8.1A7.936,7.936,0,0,0,409.77.18Zm0-2.52a5.265,5.265,0,0,1-5.37-5.61,5.24,5.24,0,0,1,5.37-5.58,5.217,5.217,0,0,1,5.34,5.58A5.242,5.242,0,0,1,409.77-2.34ZM430.5-16.05a6.816,6.816,0,0,0-5.73,2.55v-2.4h-2.76V0h2.88V-8.19c0-3.45,1.98-5.28,5.04-5.28,2.73,0,4.29,1.53,4.29,4.65V0h2.88V-9.15C437.1-13.83,434.37-16.05,430.5-16.05Z" transform="translate(836.721 838.358)" fill="#113952"/>
    <g id="prefix__logotype_fp" transform="translate(822 709.927)">
      <path id="Path_13" data-name="Path 13" d="M593,334.226h39.808v11.991H606.79v8.326h23.529v11.431H606.79v17.64H593Z" transform="translate(-593 -295.778)" fill="#0071bc"/>
      <path id="Path_14" data-name="Path 14" d="M636.9,385.216a27.828,27.828,0,0,1-10.661-2.011,26.259,26.259,0,0,1-8.458-5.469,25.264,25.264,0,0,1-5.582-8.113,24.663,24.663,0,0,1-2.025-9.95v-.139a25.071,25.071,0,0,1,7.678-18.169,26.742,26.742,0,0,1,8.529-5.5,29.279,29.279,0,0,1,21.324,0,26.251,26.251,0,0,1,8.458,5.469,25.257,25.257,0,0,1,5.587,8.113,24.647,24.647,0,0,1,2.025,9.949v.14A25.087,25.087,0,0,1,656.1,377.7a26.785,26.785,0,0,1-8.531,5.5,27.827,27.827,0,0,1-10.668,2.011Zm.106-12.346a12.587,12.587,0,0,0,5.2-1.059,11.956,11.956,0,0,0,3.989-2.859,13.211,13.211,0,0,0,2.567-4.195,13.98,13.98,0,0,0,.927-5.081v-.139a13.953,13.953,0,0,0-.926-5.079,12.729,12.729,0,0,0-17.07-7.2,12.338,12.338,0,0,0-6.561,7.054,14.472,14.472,0,0,0-.891,5.081v.139a14.009,14.009,0,0,0,.924,5.079,13.329,13.329,0,0,0,2.6,4.233,12.509,12.509,0,0,0,4.018,2.928,12.173,12.173,0,0,0,5.225,1.1Z" transform="translate(-564.397 -296.392)" fill="#0071bc"/>
      <path id="Path_15" data-name="Path 15" d="M633.52,334.231h23.529a29.386,29.386,0,0,1,9.739,1.418,16.751,16.751,0,0,1,6.468,3.951,15.2,15.2,0,0,1,4.405,11.5v.139a15.44,15.44,0,0,1-2.772,9.453,17.531,17.531,0,0,1-7.463,5.715L679.3,383.626H663.376l-10.035-14.953H647.3V383.63H633.51Zm22.889,23.709a8.365,8.365,0,0,0,5.476-1.591,5.249,5.249,0,0,0,1.919-4.268v-.142a5.1,5.1,0,0,0-1.99-4.41,9.165,9.165,0,0,0-5.474-1.444h-9.028V357.94Z" transform="translate(-525.54 -295.783)" fill="#0071bc"/>
      <path id="Path_16" data-name="Path 16" d="M682.061,334.227h21.324a29.362,29.362,0,0,1,8.531,1.163,18.7,18.7,0,0,1,6.539,3.387,14.874,14.874,0,0,1,4.157,5.471,17.741,17.741,0,0,1,1.456,7.326v.139a17.473,17.473,0,0,1-1.6,7.693,15.78,15.78,0,0,1-4.44,5.575,19.332,19.332,0,0,1-6.792,3.387,31.081,31.081,0,0,1-8.565,1.13h-6.825v14.111h-13.79Zm20.324,24.555a8.825,8.825,0,0,0,5.8-1.737,5.8,5.8,0,0,0,2.1-4.727v-.142a5.842,5.842,0,0,0-2.1-4.859,9.216,9.216,0,0,0-5.866-1.666h-6.468v13.123Z" transform="translate(-444.695 -295.78)" fill="#113952"/>
      <path id="Path_17" data-name="Path 17" d="M700.541,334.231h23.536a29.4,29.4,0,0,1,9.739,1.418,16.76,16.76,0,0,1,6.468,3.951,15.206,15.206,0,0,1,4.405,11.5v.139a15.435,15.435,0,0,1-2.772,9.453,17.528,17.528,0,0,1-7.463,5.715l11.871,17.217H730.4l-10.02-14.957h-6.043v14.957h-13.79Zm22.891,23.709a8.357,8.357,0,0,0,5.471-1.59,5.252,5.252,0,0,0,1.919-4.268v-.142a5.1,5.1,0,0,0-1.988-4.41,9.164,9.164,0,0,0-5.474-1.444h-9.028V357.94Z" transform="translate(-413.914 -295.783)" fill="#113952"/>
      <path id="Path_18" data-name="Path 18" d="M720.791,334.226h39.94v11.642H734.368v7.478h23.884v10.8H734.368v7.837h26.727v11.642h-40.3Z" transform="translate(-380.191 -295.778)" fill="#113952"/>
      <path id="Path_19" data-name="Path 19" d="M761.562,384.991a38.914,38.914,0,0,1-12.688-2.058,30.764,30.764,0,0,1-10.635-6.178l7.674-9.122a25.435,25.435,0,0,0,16.137,5.925,8.283,8.283,0,0,0,4.23-.879,2.772,2.772,0,0,0,1.458-2.5v-.139a2.661,2.661,0,0,0-.354-1.373,3.624,3.624,0,0,0-1.316-1.16,13.512,13.512,0,0,0-2.559-1.092,42.881,42.881,0,0,0-4.157-1.092q-3.983-.917-7.4-2.009a22.79,22.79,0,0,1-5.934-2.815,12,12,0,0,1-5.436-10.67v-.139a15.1,15.1,0,0,1,1.314-6.338,14.086,14.086,0,0,1,3.838-5,18.148,18.148,0,0,1,6.078-3.276,25.848,25.848,0,0,1,8.036-1.16,36.076,36.076,0,0,1,11.41,1.669,28.829,28.829,0,0,1,9.066,4.935l-6.9,9.69a28.222,28.222,0,0,0-7-3.635,21.367,21.367,0,0,0-6.932-1.234,6.267,6.267,0,0,0-3.732.915,2.725,2.725,0,0,0-1.243,2.255v.139a2.752,2.752,0,0,0,.392,1.479,3.545,3.545,0,0,0,1.352,1.16,14.8,14.8,0,0,0,2.628,1.059q1.671.527,4.233,1.09a60.961,60.961,0,0,1,7.712,2.151,23.055,23.055,0,0,1,5.866,2.992,12.054,12.054,0,0,1,3.7,4.254,12.916,12.916,0,0,1,1.279,5.948v.142a15.106,15.106,0,0,1-1.458,6.759,14.525,14.525,0,0,1-4.089,5.036,18.557,18.557,0,0,1-6.324,3.169A29.088,29.088,0,0,1,761.563,385Z" transform="translate(-351.137 -296.307)" fill="#113952"/>
      <path id="Path_20" data-name="Path 20" d="M780.025,384.99a38.922,38.922,0,0,1-12.689-2.058,30.777,30.777,0,0,1-10.635-6.178l7.676-9.122a25.432,25.432,0,0,0,16.137,5.925,8.285,8.285,0,0,0,4.23-.879,2.777,2.777,0,0,0,1.458-2.5v-.139a2.629,2.629,0,0,0-.355-1.373,3.576,3.576,0,0,0-1.314-1.16,13.639,13.639,0,0,0-2.562-1.092,42.872,42.872,0,0,0-4.16-1.092q-3.982-.917-7.392-2.009A22.784,22.784,0,0,1,764.5,360.5a12,12,0,0,1-5.436-10.67v-.139a15.1,15.1,0,0,1,1.314-6.338,14.085,14.085,0,0,1,3.838-5,18.174,18.174,0,0,1,6.078-3.276,25.861,25.861,0,0,1,8.035-1.16,36.072,36.072,0,0,1,11.408,1.668,28.808,28.808,0,0,1,9.063,4.935l-6.894,9.69a28.166,28.166,0,0,0-7-3.635,21.347,21.347,0,0,0-6.932-1.234,6.272,6.272,0,0,0-3.732.915A2.725,2.725,0,0,0,773,348.511v.139a2.757,2.757,0,0,0,.392,1.479,3.546,3.546,0,0,0,1.352,1.16,14.758,14.758,0,0,0,2.63,1.059q1.654.527,4.23,1.089a60.96,60.96,0,0,1,7.709,2.151,23.041,23.041,0,0,1,5.866,2.992,12.053,12.053,0,0,1,3.7,4.254,12.912,12.912,0,0,1,1.279,5.948v.142a15.122,15.122,0,0,1-1.458,6.759,14.53,14.53,0,0,1-4.089,5.036,18.543,18.543,0,0,1-6.327,3.169,29.054,29.054,0,0,1-8.25,1.108Z" transform="translate(-320.389 -296.305)" fill="#113952"/>
      <path id="Path_21" data-name="Path 21" d="M654.641,377.852h17.418V354.966l-17.418-17.288Z" transform="translate(-490.348 -290.099)" fill="#0071bc"/>
      <path id="Path_22" data-name="Path 22" d="M689.49,335.424,672.079,352.7v28.854H689.5Z" transform="translate(-461.312 -293.807)" fill="#0071bc"/>
      <path id="Path_24" data-name="Path 24" d="M.066.2,53.316,0,53.25,17.595,0,17.793Z" transform="translate(192.952 62.996) rotate(-135)" fill="#8cc63f"/>
      <path id="Path_25" data-name="Path 25" d="M0,0,44.376.165,44.442,18.2.069,18.02Z" transform="translate(243.968 12.868) rotate(135)" fill="#8cc63f"/>
    </g>
  </g>
</svg>