<?xml version="1.0" standalone="no"?>
<!DOCTYPE svg PUBLIC "-//W3C//DTD SVG 20010904//EN"
 "http://www.w3.org/TR/2001/REC-SVG-20010904/DTD/svg10.dtd">
<svg version="1.0" xmlns="http://www.w3.org/2000/svg"
 width="789.000000pt" height="789.000000pt" viewBox="0 0 789.000000 789.000000"
 preserveAspectRatio="xMidYMid meet">
<metadata>
Created by potrace 1.11, written by Peter Selinger 2001-2013
</metadata>
<g transform="translate(0.000000,789.000000) scale(0.100000,-0.100000)"
fill="#000000" stroke="none">
<path d="M3927 7614 c-1 -1 -69 -4 -152 -8 -82 -3 -159 -8 -170 -10 -11 -2
-51 -7 -90 -10 -86 -9 -152 -18 -219 -32 -11 -2 -37 -7 -56 -10 -150 -24 -519
-132 -645 -189 -16 -7 -53 -22 -80 -33 -158 -62 -458 -225 -610 -330 -44 -31
-94 -65 -112 -77 -27 -19 -54 -40 -137 -105 -135 -107 -368 -330 -469 -448
-34 -41 -71 -83 -81 -95 -40 -46 -186 -246 -238 -327 -176 -271 -315 -564
-413 -871 -48 -151 -55 -172 -59 -196 -2 -10 -11 -48 -20 -84 -16 -69 -38
-175 -41 -199 -1 -8 -5 -28 -8 -45 -9 -40 -19 -119 -31 -245 -28 -268 -20
-624 19 -875 3 -16 7 -48 11 -70 3 -22 12 -74 20 -115 8 -41 17 -86 20 -100 7
-36 71 -268 93 -337 266 -820 850 -1553 1590 -1997 347 -208 760 -373 1104
-442 10 -2 26 -5 35 -8 9 -3 37 -8 62 -11 25 -3 61 -10 80 -15 19 -5 60 -11
90 -15 30 -4 66 -8 80 -10 36 -5 164 -16 240 -21 80 -5 368 -4 430 1 143 11
203 17 219 20 10 2 42 6 72 10 164 19 415 77 614 141 451 146 878 384 1251
699 158 133 412 404 545 580 54 71 199 281 199 288 0 3 18 35 41 72 107 177
225 435 304 665 45 132 108 359 119 431 3 20 8 42 10 50 3 8 8 32 11 54 3 22
12 83 20 135 25 165 29 248 30 520 0 231 -5 344 -20 440 -2 14 -9 59 -14 100
-12 86 -15 99 -42 234 -45 214 -124 459 -226 696 -77 178 -224 442 -340 609
-176 252 -448 549 -675 737 -274 228 -636 446 -943 569 -38 15 -83 33 -100 40
-134 56 -492 155 -655 180 -25 4 -54 9 -64 11 -25 5 -158 22 -216 28 -38 4
-145 10 -345 20 -20 1 -37 1 -38 0z"/>
</g>
</svg>
